<svg version="1.1" id="Layer_1" xmlns="http://www.w3.org/2000/svg" xmlns:xlink="http://www.w3.org/1999/xlink" x="0px" y="0px"
   viewBox="0 0 500 500" style="enable-background:new 0 0 500 500;" xml:space="preserve">
<g>
  <path style="fill: var(--fg-gutter);" d="M293.449,278.025c0.457-0.585,3.29-16.917,3.054-26.316c0,0,0-2.115,2.114-3.524
    c2.114-1.41,3.056,2.82,4.23,5.404c1.174,2.585,3.288,9.87,3.76,10.81c0.468,0.938,2.114,4.462,3.056,1.174
    c0.938-3.29,11.042-23.029,15.741-27.964c0,0,1.881-3.759,3.995-3.759c2.117,0,5.404,0,3.996,3.056
    c-1.41,3.053-4.467,11.043-4.229,24.672c0,0,16.212-12.69,21.382-16.214c0,0,1.174-3.056,3.759-2.821
    c2.585,0.235,5.171,0.706,6.109,1.41c0.943,0.706-3.524,2.821-3.524,2.821s-6.111,11.279-6.58,12.689
    c-0.469,1.409-4.228,6.815-3.054,8.694c0,0,0.94,0.939,6.111-1.177c5.169-2.114,16.918-4.697,19.032-4.462
    c2.116,0.234-0.941,1.877-3.052,2.584c-2.116,0.705-20.446,5.169-21.151,5.637c-0.704,0.471-3.994,2.116-4.935,0.941
    c-0.941-1.174-1.174-6.815,2.349-13.863c0,0,0.705-1.88,0.705-3.525c0-1.644-7.283,4.7-8.694,6.344
    c-1.41,1.646-5.404,5.873-6.106,7.286c-0.705,1.407-1.879,2.582-4.231,2.113c-2.352-0.469-1.648-9.164-1.881-12.453
    c-0.234-3.29,0.705-10.574-0.471-10.574c-1.174,0-4.7,5.639-5.402,7.519c-0.705,1.879-6.344,13.157-6.815,18.092
    c-0.472,4.934-3.763,3.054-5.169,1.645c-1.409-1.41-3.526-14.097-7.049-15.272c0,0-0.469,1.41-0.939,3.76
    c-0.471,2.349-1.176,11.748-1.88,13.392c-0.706,1.645-1.879,5.17-3.524,5.875C292.508,282.725,291.805,280.141,293.449,278.025
    L293.449,278.025z"/>
  <path style="fill: var(--fg-gutter);" d="M278.409,268.157c0,0,4.466,11.984,5.875,19.269c1.41,7.284,1.41,8.223,0.705,8.694
    c-0.705,0.47-1.878-0.234-3.524-8.694C279.818,278.964,277.469,267.686,278.409,268.157L278.409,268.157z"/>
  <path style="fill: var(--fg-gutter);" d="M267.836,290.246c0,0,2.35-1.881,6.106,2.349c3.762,4.229,4.467,7.988,6.111,9.869
    c0,0-4.464-1.408-8.692-8.223C271.362,294.241,269.714,290.95,267.836,290.246L267.836,290.246z"/>
  <path style="fill: var(--fg-gutter);" d="M267.368,298.705c0,0,3.29,3.995,7.047,5.64c3.761,1.642,5.404,3.287,2.585,4.462
    c-2.819,1.177-12.925,3.29-13.395,2.584c-0.468-0.704,2.115-2.349,3.996-2.349c1.881,0,3.524-0.234,1.642-3.993
    C267.368,301.289,265.25,297.765,267.368,298.705L267.368,298.705z"/>
  <path style="fill: var(--fg-gutter);" d="M316.944,281.082c0,0-6.34,7.99-10.101,8.224c-3.763,0.234,3.758-5.406,3.758-5.406
    S316.475,278.964,316.944,281.082L316.944,281.082z"/>
  <path style="fill: var(--fg-gutter);" d="M319.296,282.491c0,0,7.99-6.579,12.689-6.579c0,0-5.875,3.525-7.051,4.464
    C323.76,281.315,321.643,283.9,319.296,282.491L319.296,282.491z"/>
  <path style="fill: var(--fg-gutter);" d="M354.543,274.735c0,0,4.231-1.644,7.989,11.985c0,0,2.351,3.995,2.351,5.639
    c0,1.645,2.818,5.405,3.522,10.104c0.705,4.701,3.524,14.097,3.524,18.328c0,4.229,2.119,10.574,0.239,16.92
    c-1.881,6.345-6.814,10.335-8.93,10.808c-2.114,0.47-5.407,3.76-8.694,4.702c-3.29,0.938-12.69,4.697-16.211,4.932
    c-3.528,0.234-9.404,0.233-20.446-7.285c-11.043-7.519-16.921-10.809-19.269-14.097c0,0-1.878,1.409-4.7,1.645
    c0,0-2.347,1.174-4.228,2.82c-1.878,1.644-10.809-0.235-14.099-4.231c-3.29-3.995-2.352-11.748,2.114-12.689
    c4.466-0.941,9.637-2.349,10.339-1.41c0,0-1.412-2.584-3.995-2.584c0,0-2.349-1.646-4.935-5.875
    c-2.583-4.229-3.995-0.706-3.995-0.706s-7.05,2.586-8.456,3.055c-1.413,0.47,1.407,0.47,3.524,0.47c2.114,0,5.404-2.35,6.577-0.705
    c1.174,1.644,0.469,2.585-1.645,3.054c-2.114,0.471-3.995,1.645-4.462,3.29c-0.471,1.645-3.057,5.875,1.407,12.454
    c4.467,6.579,12.454,9.399,18.096,10.105c5.637,0.705,4.466-2.585,6.108-2.351c1.643,0.236,5.876,1.175,9.399,3.995
    c3.524,2.82,15.741,9.399,19.736,11.044c3.995,1.645,3.057,1.881,6.112,2.114c3.054,0.236,6.344,0.941,9.163,0.707
    c2.818-0.236,14.096-3.056,15.979-5.407c1.879-2.346,3.758-1.878,5.873-3.054c2.117-1.175,7.521-3.994,11.28-11.513
    c3.759-7.519,1.645-12.455,0.705-16.449c-0.941-3.995-1.174-15.272-2.349-19.502c-1.177-4.231-6.346-19.035-7.053-21.149
    c0,0,7.757-0.001,9.871,0.469c2.114,0.47,3.759,0.706,3.759-0.704s-5.873-1.645-9.163-1.645c-3.29,0-5.642,0-6.58-1.88
    c-0.938-1.88-3.29-4.699,2.352-4.699c5.637,0,15.741-0.236,16.212-1.647c0.47-1.409-3.054-1.409-5.875-0.939
    c-2.819,0.47-15.037,0.47-16.449,0.47c-1.409,0-3.292-1.409-3.292-1.409L354.543,274.735L354.543,274.735z"/>
  <path style="fill: var(--fg-gutter);" d="M333.395,287.426c0,0,5.873-3.054,7.285-2.82c1.409,0.234,3.285,0.236,6.107,0
    c2.82-0.236,8.225-0.472,12.691,1.174c0,0-2.114-2.585-9.87-3.289c-7.754-0.703-8.223,0.704-9.399,0.469
    C339.034,282.727,331.045,285.782,333.395,287.426L333.395,287.426z"/>
  <path style="fill: var(--fg-gutter);" d="M339.505,306.46c0,0,0.703,10.337,3.993,12.923c3.289,2.585,3.055-3.996,2.35-6.346
    C345.146,310.687,341.151,297.531,339.505,306.46L339.505,306.46z"/>
  <path style="fill: var(--fg-gutter);" d="M355.247,316.563c0,0-3.761,0.236-4.699,2.585c-0.941,2.349,0.233,2.114,1.878,1.409
    c1.648-0.706,5.406-2.349,7.051,0c1.643,2.349,0.234,8.694-1.409,9.401c-1.648,0.703-5.405,0.939-6.347,0.234
    c-0.941-0.705-2.114,0.235-0.705,1.645c1.41,1.41,3.996,2.585,7.286,1.174c3.291-1.409,7.757-4.934,6.581-7.753
    c0,0-0.705-1.412-0.239-2.821c0.471-1.41-2.816-4.934-3.757-4.934c0,0,0.233-8.696-2.116-13.394
    c-2.349-4.7-4.933-3.053-4.228,1.881C355.247,310.923,355.247,316.563,355.247,316.563L355.247,316.563z"/>
  <path style="fill: var(--fg-gutter);" d="M337.151,346.641c0,0,0.71-2.584,7.053-1.175c6.344,1.41,4.466,2.82,4.466,2.82
    s-5.873,0.469-8.461-0.234C337.623,347.344,337.861,348.286,337.151,346.641L337.151,346.641z"/>
  <path style="fill: var(--fg-gutter);" d="M384.151,429.585c-2.116,2.588-3.527,0.239-4.938-0.468c-1.409-0.705-5.87-4.933-13.155-5.638
    c-7.288-0.707-6.347-0.941-4.935-2.586c1.409-1.647,1.878-13.393-1.178-21.147c0,0-0.467-4.467,0.471-5.17
    c0.943-0.705,4.467-2.116,1.881-7.755c-2.585-5.639-4.7-7.519-4.7-7.519s-2.35-2.116,2.114-3.525c0,0,3.056,0.234,0-3.76
    c-3.053-3.995-6.58-6.579-7.99-8.459c-1.41-1.879-2.819-3.995-2.581-5.404c0.233-1.41-1.883-0.236-3.762,0.939
    c0,0,0.234,6.346-2.582,6.11c-2.821-0.235-10.34-0.47-11.985-0.705c-1.645-0.235-3.29-1.41-5.641-2.115
    c-2.349-0.705-6.111-5.406-8.46-0.941c0,0-1.881,6.111-4.467,6.815c0,0-4.229-0.471-4.229,0.705c0,1.174,2.822,1.644,0.705,4.229
    c-2.114,2.585-3.761,5.405-4.229,6.815c-0.471,1.411-0.237,3.995,1.177,4.23c1.407,0.236,3.285,1.41,2.819,3.524
    c-0.472,2.116-0.472,6.58,3.288,8.694c3.761,2.115,5.878,1.646,8.697,4.231c2.819,2.583,5.637,1.174,5.637,1.174
    s0.002,4.231-0.233,4.938c-0.238,0.703,0.471,1.878,0.94,4.462c0.47,2.586-0.235,5.168-0.235,5.168s-3.29,1.645-3.055,3.057
    c0.234,1.409,2.112,0.234,3.29,2.349c0,0-5.878-0.471-5.407,1.174c0.471,1.645,0,1.176-1.409,1.645
    c-1.41,0.471-6.581,1.645-9.163,3.995c-2.588,2.349-3.527,1.645-4.935,0.705c-1.41-0.941-5.171-7.519-6.814-7.756
    c-1.645-0.234,0.471,2.587,1.643,4.232c1.177,1.645,4.467,6.109,4.938,7.05c0.469,0.941,2.819,3.29,1.174,4.464
    c0,0-2.351-1.174-3.058-1.174c-0.705,0,1.645,1.645,3.762,3.052c2.116,1.412,6.578,4.938,7.99,5.404
    c1.407,0.471,4.464,1.645,9.634,1.883c5.171,0.234,19.504-0.942,22.789-0.942c3.293,0,11.518-3.757,13.399-5.168
    c0,0,0.705-0.471,2.114,0.236c1.41,0.705,7.987-0.941,7.987-0.941s2.116,0.941,3.759,1.645c1.648,0.704,2.586-0.237,3.763-0.237
    c0,0,0.938-0.233,0.704-1.409c-0.233-1.174,2.583-4.936,3.995-6.345c1.41-1.412,7.519-6.111,7.755-7.519
    C391.67,424.417,386.263,427.003,384.151,429.585L384.151,429.585z M359.477,387.76c0,2.352-1.176,3.761-1.881,1.645
    c-0.705-2.116-1.881-5.875-1.881-5.875C356.892,380.478,359.477,385.411,359.477,387.76L359.477,387.76z M354.543,395.046
    c0.233,0.703,0.469,2.35-2.35,2.35c-2.819,0-12.687,0.705-14.803,1.174c-2.115,0.472-8.223,0-8.223-1.645
    c0-1.645,0-3.29,1.878-3.758c0,0,18.091-1.411,21.619-1.411C356.187,391.755,354.307,394.341,354.543,395.046L354.543,395.046z
     M330.576,401.859c0,0,20.205-2.114,23.967-2.114c0,0,2.349,1.878,2.349,4.464c0,2.588-0.234,3.054-2.349,3.29
    c-2.116,0.235-18.563,0-21.382,0C333.161,407.5,328.695,406.09,330.576,401.859L330.576,401.859z M332.689,410.321
    c0,0,20.913-0.941,22.557-1.174c1.645-0.237,3.291-0.707,3.76,2.819c0.471,3.524,0,5.402-2.348,5.402
    c-2.352,0-14.57-0.469-16.217,0.234c-1.645,0.707-8.692,1.412-8.925-1.174C331.281,413.845,331.281,410.321,332.689,410.321
    L332.689,410.321z M352.193,371.548c1.176-0.939,1.881-0.941,2.583,0c0.707,0.941,0,2.82-1.407,2.82
    C351.96,374.368,352.193,371.548,352.193,371.548L352.193,371.548z M352.193,386.114c1.176,3.527,0.471,3.762,0.471,3.762
    s-5.877,0-12.694,0.705c-6.814,0.707-7.752-0.471-10.099-1.409c-2.349-0.941-3.524-3.29-1.412-4.232
    c2.116-0.938,21.384-2.349,21.384-2.349C351.016,382.591,351.016,382.591,352.193,386.114L352.193,386.114z M321.41,364.263
    c4.467-0.236,3.524,0.94,3.524,0.94c-2.347,1.409-0.938,2.819,1.176,2.584c2.114-0.235,10.809-1.174,14.332-0.704
    c3.524,0.469,4.938,0,6.346,3.524c1.411,3.525-1.641,2.585-1.641,2.585s-6.814,0.236-9.401,0.236c-2.588,0-8.694,0.94-10.811-0.47
    c-2.112-1.41-4.933-1.41-7.048-2.821C315.77,368.728,321.41,364.263,321.41,364.263L321.41,364.263z M308.249,383.295
    c-3.314-1.105,1.177-4.697,1.177-4.697c1.645,0.234,10.575,1.41,11.984,5.404c1.412,3.993-4.699,0.938-4.699,0.938
    C313.892,383.298,308.953,383.531,308.249,383.295L308.249,383.295z M321.881,397.396c0,0-3.29,0.469-7.518-2.584
    c-4.233-3.056,1.174-6.815,1.174-6.815c2.116-1.41,7.285,0.939,7.285,0.939c0,1.646,0.47,3.524,1.878,6.581
    C326.109,398.569,321.881,397.396,321.881,397.396L321.881,397.396z M322.114,380.242c-3.524-1.88-9.634-2.819-11.044-3.994
    c-1.412-1.175,3.995-4.231,3.995-4.231s4.7,0.941,6.344,3.056c1.645,2.114,6.344,2.114,9.871,1.411
    c3.523-0.706,10.337-1.411,13.865-1.176c3.524,0.234,3.99,4.699,3.99,4.699c-2.114,0-13.625,1.645-17.856,2.35
    C327.05,383.061,325.638,382.123,322.114,380.242L322.114,380.242z M323.291,429.117c0.705-1.41,0.705,0,2.818,0.707
    c2.114,0.705,1.177,2.349,0.472,3.523c-0.705,1.177-3.526,2.35-5.876,0.941C318.358,432.878,323.291,429.117,323.291,429.117
    L323.291,429.117z M356.658,439.22c-1.647,1.648-2.82,3.526-7.756,4.233c-4.938,0.705-19.974,0.467-22.793,0.705
    c-2.818,0.234-11.044-1.176-13.161-3.525c-2.111-2.352-2.347-4.702-2.111-6.581c0.233-1.878,3.525-3.055,5.637-3.29
    c0,0,1.411,4.702,4.23,5.64c2.821,0.941,6.11,1.412,8.694,0c2.585-1.41,3.996-4.7,7.519-4.467c0,0,0.705-0.466-0.705,1.645
    c-1.409,2.117-1.409,4.234,0,4.234c1.41,0,0.943-1.645,2.583-4.467c1.645-2.818,4.467-6.344,9.401-5.404
    c4.933,0.941,6.814,1.881,9.399,3.759C360.182,433.58,358.302,437.575,356.658,439.22L356.658,439.22z M370.756,436.873
    c-4.934,2.114-7.519,1.174-6.579,0.941c0.941-0.239,1.177-3.995-0.705-5.64c-1.88-1.645-4.702-2.821-4.702-2.821
    c-0.938-0.234,0-3.995,6.112-4.229c6.108-0.235,10.103,3.288,10.808,5.405C376.395,432.642,375.691,434.756,370.756,436.873
    L370.756,436.873z"/>
  <path style="fill: var(--fg-gutter);" d="M392.142,437.107c0,0,0.938-1.645,5.873-2.35c4.93-0.705,0,0.705-1.645,1.174
    C394.725,436.402,392.142,437.107,392.142,437.107L392.142,437.107z"/>
  <path style="fill: var(--fg-gutter);" d="M409.525,437.814c0,0,3.29-0.239,2.352,1.407C410.935,440.868,409.525,438.754,409.525,437.814
    L409.525,437.814z"/>
  <path style="fill: var(--fg-gutter);" d="M428.796,423.712c0,0-3.29,5.171-5.171,8.695c-1.881,3.523-4.229,7.285-4.229,8.226
    c0,0.938,2.347-0.47,5.169-5.876C427.385,429.352,430.443,423.008,428.796,423.712L428.796,423.712z"/>
  <path style="fill: var(--fg-gutter);" d="M422.686,450.972c0,0,4.699-3.995,6.813-1.881c2.116,2.114-1.878,6.109-2.819,6.343
    C425.738,455.669,422.686,450.972,422.686,450.972L422.686,450.972z"/>
  <path style="fill: var(--fg-gutter);" d="M438.666,442.512c0,0,5.168-4.232,7.99-4.232c2.819,0-1.412,1.883-3.29,2.588
    C441.484,441.57,438.666,445.331,438.666,442.512L438.666,442.512z"/>
  <path style="fill: var(--fg-gutter);" d="M292.979,404.914c0,0,3.99,1.176,4.228,3.29c0.236,2.116-1.643-0.234-2.818-0.234
    C293.213,407.971,291.803,406.326,292.979,404.914L292.979,404.914z"/>
  <path style="fill: var(--fg-gutter);" d="M278.176,409.616c0,0,6.812,0.938,7.752,4.933c0.943,3.995-4.7-1.645-5.402-2.349
    C279.821,411.494,278.176,409.616,278.176,409.616L278.176,409.616z"/>
  <path style="fill: var(--fg-gutter);" d="M290.632,432.407c0,0,1.174-0.47,1.876-1.878c0,0,1.881,2.585,5.642,4.935
    c3.757,2.35,6.809,3.288,7.28,4.462c0.472,1.178-0.233,0.471-2.35-0.234c-2.111-0.705-6.341-2.117-12.686-6.58L290.632,432.407
    L290.632,432.407z"/>
  <path style="fill: var(--fg-gutter);" d="M137.54,42.225c0,0-0.072,0.028-0.197,0.068C139.89,46.63,137.54,42.225,137.54,42.225
    L137.54,42.225z M198.164,42.931c-7.048-1.409-6.345-2.468-6.345-2.468c2.117,0,7.402,0,8.459-3.172
    c1.058-3.172-1.762-5.992-1.762-5.992c-1.41-4.229-10.572-2.114-10.572-2.114c-1.411-2.468-11.279,2.466-14.805,3.172
    c-3.525,0.703-2.466-0.705-1.057-2.468c1.41-1.763,1.057-2.819,1.057-2.819c-4.229-0.353-12.337,5.287-12.337,5.287
    c-7.05-0.352-18.328,3.525-18.328,3.525s-4.935-7.403-9.516-9.87c-4.583-2.468-10.928,0.352-10.928,0.352
    s-8.812,10.222-9.165,12.688c-0.351,2.469,2.116,10.576,5.992,11.28c3.877,0.705,3.877,3.526,2.822,5.639
    c-1.059,2.115-1.059,6.344-1.059,9.165c0,2.818,0.705,9.515-0.704,9.869c-1.41,0.351-9.164-1.409-9.164-1.409
    s1.056,2.466,3.171,3.172c2.114,0.703,3.525,2.819,3.525,2.819c1.409-1.058,7.753,4.934,7.753,4.934
    c2.115,0,4.936,1.056,4.936,1.056c1.41-1.056,2.82-2.114,2.82-2.114s-0.705-1.41-0.353-2.114c0.353-0.706,2.466,0.353,2.466,0.353
    c-1.409-2.82-5.286-5.993-5.286-5.993c-1.058,1.762-6.345,0.703-6.697-1.41c-0.353-2.114,1.057-6.345,1.057-8.459
    c0-2.115,4.229-4.582,5.639-4.936c1.41-0.353,5.286,0.353,2.468-2.819c-2.82-3.173-5.992-0.705-5.992-2.115
    c0-1.409,3.172-1.763,4.228-3.171c1.059-1.411,2.116-3.172,2.116-3.172c-6.698-0.352-8.459-8.812-8.459-8.812s2.115-2.82,5.992,0
    c3.344,2.432,6.421,1.717,7.204,1.477c-0.242-0.413-0.524-0.899-0.86-1.477c-3.877-6.697-10.927-7.049-10.927-7.049
    c7.755-4.935,13.395,5.638,13.395,5.638c0.703,1.411,8.812,0,10.926-2.466c2.115-2.468,4.581,0,4.581,0
    c-1.762,0-2.466,1.057-2.466,1.057c-2.115,2.468-6.346,5.287-8.812,10.574c-2.468,5.289,1.411,7.05,3.173,2.116
    c1.762-4.936,9.515-10.223,9.515-10.223s2.468,1.762,6.696-0.352c4.231-2.116,5.641-1.762,5.641-1.762s3.878,1.762,10.222,2.82
    c6.345,1.055,9.165,7.4,13.393,10.926c4.23,3.525,3.877,0,3.877,0c-1.761-1.057-3.523-7.753-1.411-7.401
    c2.116,0.351,7.403,3.172,8.813,1.056C204.509,43.636,198.164,42.931,198.164,42.931L198.164,42.931z M164.681,33.413
    c0,0,0-3.171,1.762-1.762C168.204,33.06,167.147,33.413,164.681,33.413L164.681,33.413z M183.713,35.177
    c0,1.058-1.762,1.762-6.697-1.058c0,0,5.641-3.173,8.459-2.82C185.475,31.299,183.713,34.119,183.713,35.177L183.713,35.177z"/>
  <path style="fill: var(--fg-gutter);" d="M105.818,76.769c0,0,10.572,4.228,10.572,5.992c0,1.762-12.334,2.818-14.801,2.114
    c-2.469-0.705,4.229-1.763,5.286-2.82C107.933,80.997,102.998,76.769,105.818,76.769L105.818,76.769z"/>
  <path style="fill: var(--fg-gutter);" d="M91.72,86.284c0,0,11.632,0.353,17.27,0.353c5.64,0,4.581,2.82-0.352,4.582
    c-4.934,1.762-14.45,8.459-14.45,9.515c0,1.058,14.45-3.522,16.917-3.522c2.466,0,0,1.057,0.705,2.113
    c0.706,1.057,2.82-0.351,0,3.524c-2.82,3.877-7.753,8.459-4.581,7.755c3.17-0.705,10.221-4.934,12.334-3.878
    c0,0-8.459,6.698-10.574,6.698c-2.114,0-7.753,1.409-5.286-4.231c2.468-5.64,4.23-7.754,4.23-7.754s-12.69,1.762-14.805,1.762
    c-2.114,0-4.581-2.468,0-5.287c4.583-2.818,13.395-8.107,10.575-8.107C100.884,89.809,92.777,89.104,91.72,86.284L91.72,86.284z"/>
  <path style="fill: var(--fg-gutter);" d="M113.219,119.769c0,0,4.583-2.116,7.05-2.82c2.467-0.704,2.467-1.057,2.467,1.762
    c0,2.82-0.352,4.934-0.352,4.934s5.992-3.173,8.106-3.173c0,0-3.172,4.231-4.934,5.289c-1.761,1.056-6.344,2.82-7.402,5.639
    c0,0,0-2.819,0.705-5.992c0.705-3.173,1.059-4.23-2.468-3.878C112.866,121.883,113.219,118.006,113.219,119.769L113.219,119.769z"
    />
  <path style="fill: var(--fg-gutter);" d="M132.606,71.479c0,0,4.582,3.527,4.582,6.698C137.188,78.178,132.959,76.413,132.606,71.479
    L132.606,71.479z"/>
  <path style="fill: var(--fg-gutter);" d="M128.728,130.695c0,0,6.344-2.468,8.107-2.82c1.763-0.352,2.116-0.352-0.353,2.114
    C134.015,132.458,128.376,133.163,128.728,130.695L128.728,130.695z"/>
  <path style="fill: var(--fg-gutter);" d="M164.328,122.59c0,0,4.582-1.763,5.992-0.354c1.409,1.41,3.526,0.706,3.526-1.057
    c0-1.762-5.289-1.41-6.698-2.115c-1.41-0.705-5.639,1.409-4.935,2.467C162.918,122.59,163.27,122.942,164.328,122.59
    L164.328,122.59z"/>
  <path style="fill: var(--fg-gutter);" d="M153.048,97.562c0,0,2.82,11.632,14.452,13.396c11.631,1.762,18.329-4.231,19.738-8.459
    c1.41-4.23-2.466-10.222-10.221-11.984C169.262,88.753,152.345,92.276,153.048,97.562L153.048,97.562z"/>
  <path style="fill: var(--fg-gutter);" d="M159.745,96.857c0,0,12.337-5.989,20.443-1.76c8.108,4.228,1.059,6.696-0.351,6.696
    c-1.41,0-3.878-4.231-11.984-2.819c-8.108,1.408-7.05,2.819-7.05,2.819S157.277,99.678,159.745,96.857L159.745,96.857z"/>
  <path style="fill: var(--fg-gutter);" d="M160.803,77.825c0-1.056-0.706-8.107-5.64-6.346c0,0-2.115,6.698-0.705,9.871
    c1.41,3.172,2.82,7.402,5.287,5.287C162.211,84.522,160.803,78.882,160.803,77.825L160.803,77.825z M156.573,81.703
    c-1.41,0.352,0-4.231,0-4.231C157.629,76.413,157.982,81.35,156.573,81.703L156.573,81.703z"/>
  <path style="fill: var(--fg-gutter);" d="M174.196,73.242c0,0-0.703,6.698,0.353,10.222c1.058,3.525,1.763,3.525,3.526-0.704
    c1.762-4.23,2.114-10.928,0.705-10.928C177.369,71.832,174.196,70.07,174.196,73.242L174.196,73.242z"/>
  <path style="fill: var(--fg-gutter);" d="M196.755,49.98c0,0,1.762,7.049,2.114,9.868c0.352,2.82,1.057,6.346,1.057,6.346l-4.229,2.819
    c0,0,6.345,0.705,6.345,3.525c0,2.819,1.057,7.402,0,8.459c-1.058,1.058-3.525,1.41-4.584,1.41c-1.057,0-0.703,3.526-0.703,3.526
    s2.114,2.82,3.171,2.82c1.058,0,2.468,2.466,2.468,3.524c0,1.058,2.82-4.229,2.82-4.229s3.527-1.058,4.934-0.352
    c1.41,0.703-3.172,2.466-3.172,2.466s-1.41,1.763,0.706,3.173c2.114,1.407,4.582,1.407,2.466,3.522
    c-2.114,2.116-3.877,2.468,1.41,5.992c5.289,3.525,9.518,3.173,9.518,3.173s-3.877-2.82-5.287-3.173
    c-1.41-0.351-5.64-2.818-1.058-3.524c4.583-0.705,4.937-1.763,6.346-1.056c1.411,0.705,4.935-2.468,1.763-3.172
    c-3.172-0.706-10.575-3.526-11.632-3.878c-1.059-0.351-1.059-1.762,2.819-3.172c3.878-1.41,7.402-4.231,4.934-5.287
    c-2.466-1.058-7.048,0.704-8.812,1.056c-1.762,0.353-6.344,0.705-5.638-7.754c0.704-8.459-3.173-22.556-4.934-24.32
    C197.811,49.98,197.811,47.866,196.755,49.98L196.755,49.98z"/>
  <path style="fill: var(--fg-gutter);" d="M147.411,130.343c0,0,6.695,2.821,10.571,5.639c3.878,2.82,18.329,2.117,21.855-0.705
    c3.524-2.819,8.811-2.467,7.401-0.35c-1.409,2.113-8.107,4.227-9.517,5.285c-1.41,1.057-12.337,3.878-23.264-2.465
    C143.532,131.4,145.294,130.695,147.411,130.343L147.411,130.343z"/>
  <path style="fill: var(--fg-gutter);" d="M190.763,130.695c0,0,5.992,0.352,5.992,3.172c0,2.821-4.581-1.058-4.581-1.058L190.763,130.695
    L190.763,130.695z"/>
  <path style="fill: var(--fg-gutter);" d="M205.213,129.637l-5.992-4.229c0,0-1.41-1.058,0.705-3.526c2.116-2.466,4.583-4.23,7.05,0.707
    c2.468,4.934,2.468,3.524,2.468,3.524s-3.878-3.878-5.287-3.524c-1.409,0.352-1.409,1.055,0,3.524
    C205.565,128.581,208.74,129.99,205.213,129.637L205.213,129.637z"/>
  <path style="fill: var(--fg-gutter);" d="M206.267,116.261c0,0,8.488,5.492,10.986,6.992c2.496,1.496-0.999,2.245-2.746,1.496
    C212.756,124,204.767,116.76,206.267,116.261L206.267,116.261z"/>
  <path style="fill: var(--fg-gutter);" d="M206.765,107.522c0,0,9.74,10.486,11.487,11.985c1.746,1.497,0.749-1.749-0.751-3.995
    C216.003,113.264,209.513,103.777,206.765,107.522L206.765,107.522z"/>
  <path style="fill: var(--fg-gutter);" d="M247.216,442.598c-0.251-1.244-2.248-0.75-0.999-2.495c1.248-1.748,0.999-2.25-0.499-1.748
    c-1.497,0.501-2.247,0.248-4.247-2.497c-1.994-2.746,0.501-3.244,1.25-5.491c0.75-2.248,0-1.748-2.748,0
    c-2.744,1.747-2.495,0.747-4.491,0.499c-1.999-0.252-1.999,0.997,0,2.992c1.995,2-0.751,3.747-1.999,4.248
    c-1.248,0.497-0.499-4.743,0-6.243c0.499-1.497,0-4.242,0-5.994c0-1.746-1.248-5.99-1.749-2.496
    c-0.499,3.498-1.748,9.488-2.496,9.24c-0.75-0.25-4.493-3.747-6.743-5.994c-2.244-2.248-2.746-5.99-3.743-6.99
    c-1-1-2.497,0.748-1.499,2.495c0.999,1.747,0.749,3.745,0.749,3.745s-4.245-0.748-5.994-1.245c-1.746-0.5-5.741-1.75-7.49-2.5
    c-1.746-0.751-0.249-2.995,0.501-4.493c0.748-1.497,0.997-2.998,2.246-5.743c1.25-2.747,0.251-5.242,0.251-6.99
    c0-1.75-1.997-7.244-2.249-9.488c-0.248-2.247,1.498-5.494,1.498-6.495c0-0.998-1.498-4.244-2.247-8.737
    c-0.75-4.496-3.246-41.198-3.246-41.198c1.998-2.997,3.246-10.985,3.747-13.484c0.499-2.495,1.746-16.977,1.746-19.974
    c0-2.995-2.997-9.239-3.244-11.484c-0.25-2.246,0.748-18.227,0.748-20.476c0-2.246,1.746-1.497,2.746-3.744
    c0.998-2.247-1.748-3.746-2.249-4.494c-0.498-0.749-0.249-5.993-0.748-7.741c-0.498-1.748-0.25-11.235-0.25-12.482
    c0-1.249,1.75-0.751,0.75-2.998c-0.997-2.246-2.246-5.991-2.746-8.49c-0.5-2.495-5.992-41.946-6.242-44.194
    c-0.25-2.246,1.747-2.998,1.747-5.242c0-2.248-2.995-5.245-2.995-5.245s-0.75-4.492-0.999-5.492
    c-0.25-0.997-0.499-3.496-0.748-4.495c-0.25-0.998,3.246-2.246,2.996-3.495c-0.25-1.248-4.495-4.743-5.993-6.74
    c-1.496-1.998,0.501-8.241,0.501-11.238c0-2.995-0.501-6.243-2.249-6.243c-1.748,0-3.496,0.501-3.496,1.997
    c0,1.5-0.499,1.75-0.499,1.75c-5.245,1.497-3.996,4.493-0.999,9.737c2.997,5.244-0.499,5.242-2.746,7.241
    c-2.247,1.997-1.749,4.743-0.999,5.993c0.75,1.249,4.495,8.989,5.743,10.487c1.248,1.498,1.997,4.494,0.748,6.242
    c-1.248,1.747-1.248,2.996,0.749,3.496c1.997,0.499,2.498,0.748,0.249,2.746c-2.246,1.997,0.001,1.997,2.249,7.739
    c2.246,5.742,0,2.496,0,2.496s0.25,0.751-1.248,2.997c-1.499,2.247-0.252,5.493,1.746,5.493c1.998,0,3.497,3.246,4.995,4.743
    c1.498,1.498,2.995,5.244,0.748,6.493c-2.246,1.248-3.745-2.998-4.494-3.996c-0.748-0.999-1.997-6.24-2.497-4.743
    c-0.499,1.497,1.996,6.991,1.996,6.991s0.751,3.495-1.246,4.994c-1.997,1.497-1.248,2.995-1.248,2.995
    c3.744,1.248,2.247,9.237,2.995,10.737c0.749,1.497,0,19.224,0,22.221c0,2.995,0,15.23,0.25,18.726
    c0.249,3.495,1.997,23.719,2.246,26.467c0.25,2.747,0.75,21.972,1.249,29.462c0.501,7.491,1.248,21.473,1.997,25.468
    c0.748,3.995-1.997,10.237-2.746,17.729c-0.748,7.491-8.99,12.235-8.24,12.235c0.75,0,4.245-0.749,5.743-1.499
    c1.499-0.749,3.247-3.495,3.747-4.996c0.497-1.498,0.997-3.994,2.244-3.994c1.249,0,2.997,2.749,2.997,4.495
    c0,1.748-3.495,4.495-4.744,4.495c-1.248,0-8.239,3.495-9.988,4.493c-1.746,1.001-9.737,1.498-16.229,0
    c-6.492-1.499-9.987-6.492-9.238-6.739c0.75-0.252,0.75-2.749-0.5-4.496c-1.249-1.748-3.995-2.248-4.743-2.248
    c-0.75,0-1.499-5.992-1.499-7.49c0-1.499-0.998-7.242-0.998-8.739c0-1.497,0-9.737,0-10.738c0-1,1.748-1.497,1.997-2.746
    c0.252-1.247-1.497-3.744-2.246-5.493c-0.75-1.746-1.249-7.49-1.249-8.988c0-1.496-1.248-20.723-1.248-21.723
    c0-0.999,1.5-5.243,1.248-6.241c-0.25-0.998-1.499-5.494-1.499-7.241c0-1.746,0.25-7.49,0.999-9.737
    c0.75-2.249,0.25-7.491,0.25-7.491s-0.499-7.242-0.499-8.239c0-0.999,2.497-2.998,2.497-3.746c0-0.749-2.997-1.746-3.247-3.995
    c-0.247-2.246,0.25-15.98-1.247-15.229c-1.499,0.746-0.25,2.994-0.75,8.237c-0.499,5.244-1.748,5.495-3.745,5.994
    c-1.997,0.497-2.996,3.246-4.493,1.997c-1.5-1.248-1.997-8.99-1.748-11.237c0.248-2.245,0.749-3.245,0.499-5.492
    c-0.25-2.248-0.499-5.742,0.25-6.741c0.748-0.999,6.741-0.75,10.486-0.75c3.745,0,3.496,4.745,3.496,4.745
    c1.247-1.997,0.249-15.231-1.748-19.977c-1.998-4.743-0.249-4.242-0.249-4.242s1.497,2.997,4.495,1.997
    c2.995-0.999-0.501-2.497-1.998-4.992c-1.497-2.497,0.748-2.249,2.247-4.496c1.497-2.245,0-2.996-1.499-2.996
    c-1.497,0-2.245,0.25-1.496-2.247c0.748-2.496,0.249-18.975,0.249-18.975s2.246-1.748,2.246-3.246c0-1.498-0.249-3.495,1.249-2.497
    c1.497,0.999,3.496,0.999,3.496,0.999c0-3.747-7.239-19.725-8.239-22.471c-0.998-2.75,3.996-1.749,5.992-0.252
    c1.998,1.499,4.744,2.249,4.244,0.751c-0.497-1.499-5.992-10.237-7.74-11.987c-1.747-1.746-2.746-6.24-3.744-4.492
    c-0.999,1.746,2.249,6.492,3.498,7.49c1.245,0.997-0.501,1.499-1.75,1.499c-1.248,0-1.748-1.499-3.245,0.499
    c-1.499,1.997-2.997,0.25-4.245-1.747c-1.248-1.998-4.743-4.245-7.74-1.498c-2.995,2.746-3.496,0-2.995-3.747
    c0.497-3.744,3.743-4.493,5.742-4.493c1.997,0,7.49,0.498,8.99-1.748c1.497-2.246-1.999-2.995-5.743-4.243
    c-3.744-1.249-5.743-0.75-5.993-2.497c-0.249-1.748,3.746-0.998,3.746-0.998c1.746-2-4.494-2.248-4.494-2.248
    c1.497,1-1.499,1.749-1.499,3.247c0,1.497-0.499,2.246-4.493,1.497c-3.995-0.749-2.247-0.498,0.499,4.246
    c2.746,4.743-0.999,10.736-1.997,11.234c-0.999,0.5-3.995,2.996-3.744,5.993c0.25,2.995-1.498,8.988-2.248,11.237
    c-0.749,2.247-0.749,5.243-0.749,5.243l-2.746,15.23c0,0,0,5.992-2.249,8.989c-2.247,2.997,0.75,6.491,0.75,6.491
    s-1.248,8.489-0.997,17.228c0.247,8.739-1.997,14.732-2.499,17.978c-0.499,3.246,1.749,4.495,2.499,4.743
    c0.748,0.251-0.502,13.234-1.499,15.482c-0.999,2.246-0.75,5.243-0.251,6.241c0.499,0.997,1.499,16.479,1.997,21.473
    c0.501,4.994-0.748,5.494-0.997,7.492c-0.25,1.997-6.743,10.735-6.743,10.735s-3.744-0.751-8.988,0.498
    c-5.243,1.248-8.238,3.746-8.49,8.99c-0.249,5.24,3.495,11.985,3.495,11.985c-2.997,2.245-2.746,4.744-2.495,6.989
    c0.248,2.248,4.492,6.743,7.99,8.99c3.495,2.247,8.738,0.501,8.738,0.501s0.499,0.749,4.744,5.492
    c4.245,4.743,2.499,13.983,2.998,15.73c0.498,1.747,0.498,22.472-0.499,27.714c-1,5.242-2.249,8.49-4.747,13.732
    c-2.496,5.245-5.992,3.498-8.739,5.245c-2.746,1.748-10.484,2.745-12.233,2.745c-1.746,0-3.744,1.002-7.99,0
    c-4.245-0.997-8.489,2.247-10.736,2.497c-2.247,0.25-4.244,0-5.244,0c-0.998,0-2.247,2.747-2.247,2.747
    c-7.49,3.495-10.486,6.492-11.235,13.732c-0.748,7.244,5.993,9.739,7.241,10.737c1.249,0.998,6.242-0.25,9.739,1.25
    c3.495,1.497,11.485,2.247,11.485,2.247c0,2.993-5.244,2.745-5.244,2.745s-7.24-0.75-10.987,2.998
    c-3.744,3.745-2.746,7.742,2.497,12.983c5.245,5.244,20.976,3.995,22.722,3.245c1.747-0.748,17.728-3.245,19.475-3.741
    c1.748-0.502,16.98-4.249,17.227-5.747c0.252-1.497,1.999-3.744,3.747-3.744c1.748,0,7.491-2.995,7.491-2.995
    c3.995,1.498,11.235,1.248,11.235,1.248c5.992,1.748,17.729,1,20.974-0.25c3.246-1.247,3.496-0.247,3.496-0.247
    c0.997,1.747,3.246,2.995,3.744,0.748c0.499-2.248,3.245-2.998,5.991-3.995c2.748-0.998,3.498,3.995,3.498,3.995
    c3.247-0.25,2.746-3.245,2.746-3.245c3.745,0.75,24.468,0.247,24.468,0.247s0.999,2.497,2.499,2.497
    c1.496,0,2.247-3.244,2.247-3.244s1.997-0.502,3.495-1.997c1.497-1.498,5.243-3.996,7.49-3.996c2.247,0,3.247-2.746,3.247-3.496
    c0-0.748,2.244-4.743,3.494-6.743c1.249-1.995,4.242-1.245,4.992,1.753c0.753,2.992-2.993,0.997-6.242,4.742
    c-3.244,3.744,2.998,1.748,4.996,0.248c1.998-1.497,3.995-2.495,5.244-1.748C246.714,445.348,247.465,443.849,247.216,442.598
    L247.216,442.598z M183.244,167.82c1.175-0.939,1.644,1.881,1.644,1.881S182.068,168.762,183.244,167.82L183.244,167.82z
     M185.124,149.023c0.939-0.705,1.88,2.82,0.705,3.054C184.655,152.313,185.124,149.023,185.124,149.023L185.124,149.023z
     M190.528,182.389c-0.939,0.235-1.881-1.41-2.584-6.344c-0.706-4.934-1.881-7.283-1.881-7.283c1.881-4.466,3.056,0.468,3.76,2.584
    C190.528,173.461,191.467,182.155,190.528,182.389L190.528,182.389z M193.111,230.325c1.174-0.47,1.412-2.351,1.412-2.351
    c2.583-0.939,1.644-0.233,2.818,2.82c1.175,3.056,1.88,10.576-1.174,10.809C193.111,241.84,191.939,230.794,193.111,230.325
    L193.111,230.325z M194.758,276.851c-0.94,1.881-0.942-3.525,0-5.873C195.02,270.323,195.696,274.97,194.758,276.851
    L194.758,276.851z M196.401,262.047c-1.175-1.409-1.408-12.687-1.408-12.687c0.468-2.821,3.053-0.941,3.759-0.705
    c0.703,0.235,1.174,8.695,1.174,12.218C199.926,264.399,197.576,263.458,196.401,262.047L196.401,262.047z M198.28,278.025
    c-0.704-0.938-0.939-8.458-0.939-8.458c2.585-0.706,2.585,1.174,2.585,3.289C199.926,274.972,198.986,278.964,198.28,278.025
    L198.28,278.025z M199.926,308.81c-0.47-0.941,0-2.115,0-2.115C201.572,306.695,199.926,308.81,199.926,308.81L199.926,308.81z
     M172.434,397.396c0,0,10.104-1.175,11.749-1.175c1.646,0,8.224-0.234,10.575-0.941c2.348-0.703,5.168-0.233,5.168-0.233
    s-0.234,5.873,1.411,8.223c0,0-16.213,3.291-25.847,4.7c0,0-3.526,0.002-4.23-2.583c-0.706-2.583-2.821,0.234-2.821,1.645
    c0,1.409-0.47,1.409,0.236,2.819c0.703,1.409,1.409,4.466-0.236,5.168c-1.645,0.705-18.328,0.705-23.262-0.236
    c-4.934-0.938-14.805-6.107-14.805-6.107s-2.819-0.705-3.525,0.234c0,0-4.464-5.168-3.759-8.456c0,0,13.393,2.111,16.919,2.816
    C143.532,403.977,165.149,406.56,172.434,397.396L172.434,397.396z M172.434,413.845l-0.235-2.819
    c7.05,0,21.852-1.879,24.672-2.116c2.821-0.234,3.525,0.707,3.054,2.82c-0.47,2.115-0.705,2.115-2.115,4.934
    c-1.41,2.82-13.392,4.699-14.332,4.699c-0.94,0-6.813,0.941-9.869,0.234c-3.056-0.703-3.056-2.583,0-4.697
    C176.662,414.782,172.434,413.845,172.434,413.845L172.434,413.845z M140.008,418.072c4.464,2.82,19.973,4.231,23.967,3.524
    c3.995-0.703,3.291,2.821,3.291,2.821s-15.039-0.233-19.973,0.236c-4.934,0.469-10.574,0.471-12.22-0.236
    c-1.644-0.705,1.41-3.287,1.41-3.287S135.542,415.251,140.008,418.072L140.008,418.072z M130.372,419.951
    c0,0-2.584,0.471-3.055,3.29c-0.47,2.821-2.349,4.7-3.993,5.171c-1.645,0.472-5.64-6.108-5.64-10.339c0-4.228,0-10.338,2.114-7.519
    C119.799,410.554,128.259,418.777,130.372,419.951L130.372,419.951z M155.516,387.76c0.703,1.411,4.934,7.048,7.048,7.519
    c0,0,1.645,0.237-3.053,0.941c-4.7,0.703-25.847,1.41-32.663-1.409c-6.815-2.821-2.115-3.056-5.404-2.821
    c0,0-1.881-0.703,0.704-6.11c0,0,12.924,3.054,21.384,2.115C151.992,387.056,154.81,386.352,155.516,387.76L155.516,387.76z
     M151.051,372.489l0.47,6.814c0,0,1.412,1.409-6.814,1.879c-8.225,0.47-20.913,1.879-20.913,1.879s-1.645,1.408-1.41-3.289
    c0.235-4.7,1.41-11.045,1.41-11.045s0.234-0.939,1.88-0.705c0,0,16.214,4.464,20.915,1.881
    C151.287,367.319,151.051,372.489,151.051,372.489L151.051,372.489z M149.172,353.923c0,1.645,0.705,9.165,0.705,9.165
    s-3.055,1.41-6.109,0.706c-3.056-0.706-13.16-1.645-14.57-1.645c-1.41,0-5.404-0.942-5.404-2.82c0-1.881,3.289-4.7,4.229-5.406
    c0.941-0.702,2.82-1.881,2.82-1.881s-0.235-0.466,2.82,0.472c3.054,0.94,7.049,0.708,9.164,0.708
    C144.943,353.222,149.172,352.28,149.172,353.923L149.172,353.923z M146.353,330.661c-1.41,0.236-4.7-1.409-5.876-1.409
    c-1.175,0-1.878-2.82-1.878-4.935c0-2.116,1.41-7.755,0.703-9.869c0,0,1.175-1.411,3.526-1.411c2.35,0,4.936,1.881,3.525,3.526
    c-1.41,1.644,0.705,6.344,0.705,7.755C147.057,325.727,147.763,330.427,146.353,330.661L146.353,330.661z M138.362,285.31
    c0,0,6.815-0.234,8.226,1.175c0,0,0.469,15.039-0.236,18.093c-0.706,3.054-3.995,2.586-5.876,2.35c0,0-0.939-3.758-0.703-6.578
    c0.234-2.821,0.469-2.585-0.705-3.761C137.893,295.415,139.068,288.601,138.362,285.31L138.362,285.31z M138.362,274.03
    l8.695-0.468v7.049c0,0-5.875-0.941-7.52-0.941C137.893,279.671,137.422,278.025,138.362,274.03L138.362,274.03z M137.188,335.597
    c0,0,0.941-1.411,3.056-0.705c2.114,0.705,5.873,1.409,6.814,0.705c0.94-0.705,0.705,3.289,0.705,4.465
    c0,1.174-1.176,4.934-2.351,5.639c-1.175,0.706-5.875,1.643-7.755,1.409c-1.878-0.234-2.585-2.82-2.585-4.698
    C135.072,340.531,136.953,338.417,137.188,335.597L137.188,335.597z M130.138,287.896c-2.115,0.705-10.809-0.705-12.22-2.35
    c0,0-0.704-7.99-0.704-11.516c0,0,6.111,0.942,8.225,0.942c2.115,0,7.755,0.703,7.755,0.703s2.114,0.47,2.114,2.349
    c0,1.881,0.706,5.875,0.472,7.755C135.542,287.661,132.254,287.19,130.138,287.896L130.138,287.896z M132.959,302.228
    c-3.76,1.177-8.459-1.408-10.575-1.172c-2.115,0.233-3.76-3.762-3.525-6.815c0,0,0-2.117,2.822-1.177
    c2.819,0.941,10.103,2.821,13.626,2.35C135.307,295.415,136.717,301.055,132.959,302.228L132.959,302.228z M118.624,254.058
    c-0.235-2.583,3.056-1.174,3.056-1.174c2.819,0,5.637,0.941,8.928,1.646c3.289,0.705,4.23,1.409,4.23,1.409
    s0.234,6.108,0.234,10.34c0,4.229-6.344,3.053-8.224,2.349c-1.879-0.703-8.694-1.175-9.398-2.116c-0.706-0.938,0-6.342,0.468-8.223
    C118.389,256.409,118.858,256.643,118.624,254.058L118.624,254.058z M140.008,199.074c-2.115-3.995,6.109-2.584,7.05-2.584
    c0.94,0,0.705,6.578,1.409,9.165c0.706,2.583,1.645,8.929-2.584,8.929c-4.229,0-8.459-1.41-8.459-1.41s-2.352-0.941,1.878-5.641
    C143.532,202.834,140.008,199.074,140.008,199.074L140.008,199.074z M149.641,239.725c0,0-3.053,0-7.519,0
    c-4.465,0-5.168-2.586-5.168-2.586s0.234-12.923,0.234-14.335c0-1.407,1.41-2.349,1.41-2.349c5.17,0,3.524-1.877,7.048,3.528
    C149.172,229.386,149.641,239.725,149.641,239.725L149.641,239.725z M127.318,169.467c1.41-3.29,3.761-4.231,3.761-4.231
    c10.104-2.583,15.979-0.233,17.387,0.471c1.411,0.705,0.706,4.7,3.291,8.459c2.583,3.761,2.348,7.755,2.348,7.755
    c-3.758-2.116-4.229,1.643-4.229,1.643s-1.88,0.234-2.35,4.465c-0.47,4.229-3.056,3.524-5.169,3.524
    c-2.114,0-2.585-3.054-2.35-3.996c0.236-0.939,1.411-2.584,1.411-4.933c0-2.348,0-5.168-0.706-5.168
    c-0.705,0-6.109,0.938-7.284,0.706c-1.176-0.234-4.464,0.233-6.814-0.941C124.263,176.046,125.908,172.756,127.318,169.467
    L127.318,169.467z M121.68,187.558c0,0,0.468-2.349,2.114-2.349c0,0,5.873,1.41,8.224,0c2.349-1.41,3.054,0.47,3.054,0.47
    s1.175,9.634-1.409,12.454c-2.585,2.819-12.219,3.759-12.925,3.525C120.033,201.424,121.208,196.959,121.68,187.558L121.68,187.558
    z M120.033,209.178c0,0,4.23-0.471,6.581-0.471c2.349,0,7.283,0.942,7.283,0.942s0.941,3.289,0.236,3.993
    c-0.706,0.705-2.585,1.645-1.175,4.465c1.409,2.82,1.645,2.584,1.409,3.993c-0.234,1.41-0.47,2.586-6.344,2.349
    c-5.875-0.234-8.46-1.645-8.46-1.645S119.094,211.058,120.033,209.178L120.033,209.178z M118.858,238.785
    c0,0,2.115-3.995,0.941-4.699c-1.175-0.706-1.881-3.056,1.174-3.291c0,0,5.405,2.82,11.516,1.645c0,0,2.349-1.174,2.349,0.94
    c0,2.116,0.704,3.055-0.471,5.405c-1.174,2.349-2.114,0.941-2.114,0.941s1.644,3.29,2.349,4.229
    c0.703,0.939,1.41,4.231-0.236,4.231c-1.645,0-2.349-4.465-5.875-2.114c-3.523,2.349-9.398,3.759-9.868,3.759
    s0.234-3.524-1.174-6.11C116.039,241.134,118.858,238.785,118.858,238.785L118.858,238.785z M114.629,345.935
    c0,0,0-3.289-3.524-2.585c-3.524,0.706-8.692,2.82-13.158-1.411c-4.465-4.228-2.82-8.224-1.409-8.693
    c1.409-0.47,7.283,1.175,8.224,0.939c0.941-0.236,2.819-2.35,4.228-2.35c0,0-2.114-1.878-4.933-2.585
    c-2.82-0.704-6.11-5.406-6.345-7.285c-0.235-1.879-1.174-4.7,1.645-6.813c2.82-2.117,5.874-3.056,7.754-1.176
    c1.879,1.879,4.463,2.35,5.405,2.35c0.939,0,3.053,0.234,3.053,0.234s0.236-2.115-1.175-2.82c-1.409-0.706,0.236-3.995,0.941-5.639
    c0.704-1.645,2.115-2.582,2.583-2.82c0,0,9.4,2.352,14.336,0.707c4.934-1.645,3.289,0.235,3.289,2.35
    c0,2.112-3.524,35.715-4.934,37.595c0,0-5.17,3.292-6.109,4.7c0,0-4.231-0.47-4.7,1.175
    C119.329,353.454,113.924,352.042,114.629,345.935L114.629,345.935z M91.603,424.888c3.053,0,4.698,0.235,7.99-0.472
    c0,0,3.995,6.814,5.404,8.226c1.408,1.409-1.175,1.645-2.82,1.645c-1.645,0-9.87,0.236-11.279,0.704
    c-1.412,0.47-3.761-2.349-1.176-2.114c2.585,0.234,0.47-1.648-0.939-4.231C87.372,426.062,88.547,424.888,91.603,424.888
    L91.603,424.888z M79.853,426.062c1.88-1.645,4.229,3.29,4.229,3.29s-2.349-0.941-3.054-1.174
    C80.322,427.943,77.973,427.707,79.853,426.062L79.853,426.062z M57.999,431.701c0.235-0.94,3.761-1.409,4.466-1.878
    c0.705-0.472,4.932-1.412,7.752-2.35c2.82-0.94,9.871,5.638,9.871,5.638s2.114,0.468,0.939,1.412
    c-1.177,0.938-7.286,0.233-8.694-1.412c-1.41-1.642-4.936-1.642-8.458-0.938C60.35,432.878,57.764,432.642,57.999,431.701
    L57.999,431.701z M71.393,442.512c-1.175,0.703-0.469,1.407,0.236,2.819c0.705,1.409-0.471,2.35-2.35,2.35
    c-1.881,0-6.813-2.586-8.224-2.35c-1.409,0.234-1.409-5.168,2.585-7.051c0,0,4.465-5.873,6.578-4.461
    c2.116,1.407,3.76,4.461,3.76,4.461S72.568,441.808,71.393,442.512L71.393,442.512z M89.957,447.915
    c-0.235,0.941-1.645,2.821-1.645,2.821s-9.634-1.41-10.338-2.821c-0.705-1.407-1.644-5.402,3.524-7.989c0,0,3.291,1.178,6.58,1.412
    c3.29,0.233,5.404,0.94,5.404,2.116C93.481,444.625,90.192,446.977,89.957,447.915L89.957,447.915z M94.187,438.28
    c1.879-0.234,12.923-0.705,14.334-1.174c1.409-0.47,3.994-0.234,1.643-4.228c-2.349-3.995-3.993-7.287-3.054-11.282
    c0.941-3.995,2.821-1.407,4.231-1.174c0,0,2.819,7.052,6.344,8.461c3.524,1.41-0.235,4.464-0.235,4.464s-5.17,3.526-6.108,6.345
    c-0.943,2.82-2.352,1.412-3.761,0.941c-1.409-0.47-7.755-0.707-9.398-0.236C96.537,440.868,92.306,438.518,94.187,438.28
    L94.187,438.28z M102.881,446.036c0,0-3.056,0.471-5.875,0.705C97.006,446.741,99.357,444.158,102.881,446.036L102.881,446.036z
     M101.471,467.654c-1.645,0.236-4.934,0.704-4.934,0.704s2.114-4.228,0-8.458c0,0,7.755-0.942,8.46,2.35
    C105.702,465.539,103.116,467.418,101.471,467.654L101.471,467.654z M120.269,462.952c-2.115,1.411-7.519,2.821-8.225,1.178
    c-0.703-1.645-2.585-5.406-5.873-6.58c-3.29-1.176-8.695-5.169-3.761-6.345c0,0,10.809-1.878,11.983-0.469
    c1.175,1.412,5.875,4.697,6.815,6.579C122.148,459.194,122.384,461.544,120.269,462.952L120.269,462.952z M125.438,455.904
    c-1.41-3.29-6.344-7.049-6.344-7.049s-2.116,1.176-1.409-0.47c0.704-1.645,11.279,3.053,10.574,4.464
    c-0.706,1.409-0.236,0.705,0.469,3.524C129.433,459.194,126.848,459.194,125.438,455.904L125.438,455.904z M188.178,449.09
    c0,0-0.234-4.228-2.115-6.344c-1.88-2.114-3.759,0-3.054,2.585c0.705,2.586,2.115,7.285-0.47,8.461
    c-2.585,1.174-4.934,1.174-5.873-0.472c-0.941-1.645-2.82-9.163-2.82-9.163c-0.236-2.349-4.701-5.171-4.701-4.232
    c0,0.942,2.116,8.227,2.584,9.165c0.471,0.941,2.351,5.407,0.471,7.05c-1.88,1.645-17.858,0.471-21.383,0.471
    c-3.524,0-11.279-1.883-13.393-4.463c-2.117-2.588-18.095-7.286-21.149-8.461c-3.056-1.174-2.114-3.524-1.411-5.873
    c0.705-2.35,16.449-10.34,16.449-10.34s6.58,1.645,12.456,2.583c5.873,0.94,14.332-2.114,17.387-2.35
    c3.054-0.233,3.995,2.35,5.404,2.35c1.41,0,3.292-2.114,3.292-2.114s5.404-0.236,8.929,0c3.524,0.236,5.639,2.819,6.815,3.995
    c1.175,1.176,5.169,0,6.109,7.283C192.644,446.507,188.178,449.09,188.178,449.09L188.178,449.09z M226.01,444.392
    c-1.41,5.873-5.875,8.459-7.286,8.459c-1.41,0-2.584-2.819-3.289-6.343c-0.706-3.525-3.055-7.049-3.289-5.875
    c-0.236,1.176,0.938,6.578,1.407,7.753c0.471,1.174,0.471,5.169-1.878,5.169c-2.351,0-18.092,0.704-19.502,0.704
    c-1.41,0-3.76-1.878-1.645-2.82c2.113-0.936,6.108-5.402,6.344-11.275c0.234-5.875-5.639-10.339-7.753-11.985
    c-2.115-1.645,3.76-2.35,3.76-2.35c-0.47,3.524,1.173,5.168,2.348,5.168c1.176,0-0.703-1.88,3.76-4.702
    c4.464-2.816,10.341,0.239,18.799,3.762C226.245,433.58,227.42,438.518,226.01,444.392L226.01,444.392z"/>
</g>
</svg>
